Coordinates
version=1
nRows=29
nColumns=24
inDegrees=yes

Units are S.I. units (second, meters, Newtons, ...)
Angles are in degrees.

endheader
time	pelvis_tilt	pelvis_list	pelvis_rotation	pelvis_tx	pelvis_ty	pelvis_tz	hip_flexion_r	hip_adduction_r	hip_rotation_r	knee_angle_r	ankle_angle_r	subtalar_angle_r	mtp_angle_r	hip_flexion_l	hip_adduction_l	hip_rotation_l	knee_angle_l	ankle_angle_l	subtalar_angle_l	mtp_angle_l	lumbar_extension	lumbar_bending	lumbar_rotation
      0.45400000	     -4.98134159	      3.84080155	     -0.64604120	     -0.72355361	      1.00754077	      0.27207857	     22.26078296	     -2.55630851	      1.50602033	     -2.77047537	      4.41141950	     -4.92474811	      7.26195180	     -6.44027110	      8.57359210	      7.01427283	    -12.81480247	      5.29542009	    -11.46777376	      6.46189660	     -9.10917349	      3.58760752	     -6.90079791
      0.45816667	     -4.98679312	      3.79968501	     -0.63500104	     -0.71810815	      1.00698928	      0.27227140	     22.18003604	     -2.43396116	      1.67643763	     -2.78397222	      4.16016008	     -4.72217152	      7.28515559	     -6.51693180	      8.50715650	      6.87917876	    -13.30434259	      5.28461919	    -11.20717961	      6.48549034	     -9.08038459	      3.67094258	     -6.86163972
      0.46233333	     -5.00858555	      3.74795532	     -0.61238056	     -0.71266938	      1.00640963	      0.27251351	     22.12354820	     -2.29881890	      1.87487927	     -2.88750074	      3.96804758	     -4.61769599	      7.34188980	     -6.51241431	      8.41058260	      6.59710047	    -13.92348657	      5.40217229	    -10.66690807	      6.59035220	     -9.02860845	      3.72665986	     -6.80709678
      0.46650000	     -5.02798185	      3.67873139	     -0.60853880	     -0.70720149	      1.00582204	      0.27277116	     22.08318685	     -2.14083870	      2.08821003	     -3.08927457	      3.70197911	     -4.54691725	      7.42218005	     -6.51455548	      8.29821386	      6.33763057	    -14.53234250	      5.46344604	    -10.20864304	      6.77284335	     -8.98885331	      3.81852978	     -6.76146335
      0.47066667	     -5.05280041	      3.60398671	     -0.61260914	     -0.70170878	      1.00523930	      0.27304820	     22.05890933	     -1.97432727	      2.30831292	     -3.36867983	      3.42127992	     -4.49701658	      7.51757615	     -6.49860365	      8.17832401	      6.06737408	    -15.16492229	      5.49235923	     -9.75644921	      7.01847116	     -8.93388588	      3.91605512	     -6.70694473
      0.47483333	     -5.00972277	      3.50856258	     -0.63936560	     -0.69616030	      1.00475830	      0.27336012	     21.95237037	     -1.78212212	      2.56173062	     -3.67538663	      3.04353522	     -4.54300813	      8.76442994	     -6.55975088	      8.03446900	      5.77773270	    -15.77393144	      5.41011669	     -9.38174772	     10.44062511	     -8.95677432	      4.04545884	     -6.66844190
      0.47900000	     -5.05702785	      3.41974005	     -0.65585769	     -0.69062699	      1.00411920	      0.27365779	     21.99993755	     -1.59798818	      2.74975570	     -4.15441001	      2.80621567	     -4.49856336	      8.79301785	     -6.48431860	      7.89474829	      5.47112047	    -16.47466826	      5.38943835	     -8.91118834	     10.52695633	     -8.86477938	      4.16752486	     -6.58421449
      0.48316667	     -5.03541830	      3.30835831	     -0.68744271	     -0.68504727	      1.00359375	      0.27400526	     21.95785848	     -1.38663937	      2.97384628	     -4.63886588	      2.50179278	     -4.54650520	      8.83729273	     -6.47303995	      7.72357058	      5.12324653	    -17.18718891	      5.36045158	     -8.39133545	     10.70318204	     -8.85979823	      4.30917681	     -6.51781928
      0.48733333	     -5.04640227	      3.19703768	     -0.72443704	     -0.67946105	      1.00300931	      0.27436420	     21.97150268	     -1.17296019	      3.19431920	     -5.19756836	      2.20593836	     -4.62435157	      8.89317762	     -6.40104115	      7.55006456	      4.76290308	    -17.94736140	      5.29641785	     -7.87953712	     10.95187464	     -8.81206287	      4.44722877	     -6.44644564
      0.49150000	     -5.02784505	      3.07375886	     -0.77530321	     -0.67384544	      1.00246837	      0.27475484	     21.95245790	     -0.94179368	      3.44242268	     -5.78062198	      1.87762400	     -4.83367621	      9.71944213	     -6.35107487	      7.35943760	      4.38150822	    -18.71368376	      5.10514730	     -7.46525185	     14.83216500	     -8.79493413	      4.61273212	     -6.37538001
      0.49566667	     -5.02277142	      2.96861977	     -0.82398972	     -0.66822352	      1.00189165	      0.27512649	     21.99220484	     -0.73660473	      3.60114189	     -6.48235412	      1.67281418	     -4.84521367	      9.73610692	     -6.25624229	      7.18319020	      3.97874074	    -19.54103094	      4.96596534	     -6.91582717	     14.92861400	     -8.76609597	      4.74422146	     -6.30343338
      0.49983333	     -5.00235600	      2.84932475	     -0.87952269	     -0.66259324	      1.00134731	      0.27552981	     22.01338448	     -0.51230152	      3.78763135	     -7.19838426	      1.45158312	     -4.99179281	      9.75894668	     -6.15183882	      6.98542423	      3.55779765	    -20.41653454	      4.80598899	     -6.36058921	     15.11539904	     -8.75456963	      4.89217848	     -6.22877997
      0.50400000	     -4.98402075	      2.70747461	     -0.92221314	     -0.65692864	      1.00079849	      0.27592051	     22.03789523	     -0.27090081	      3.93580058	     -7.94018501	      1.25358204	     -5.18606712	      9.81305879	     -6.01976461	      6.75263249	      3.12293661	    -21.33782794	      4.60992840	     -5.75642010	     15.64660319	     -8.73652841	      5.09095188	     -6.14467500
      0.50816667	     -4.98390874	      2.60463259	     -1.00026426	     -0.65129793	      1.00021174	      0.27638676	     22.10080369	     -0.05154721	      4.17306819	     -8.72007613	      1.06796680	     -5.49227265	     10.17605666	     -5.83938030	      6.55853066	      2.65200567	    -22.28946156	      4.25672966	     -5.31932302	     19.77014557	     -8.69771670	      5.21202584	     -6.08038196
      0.51233333	     -4.95372380	      2.50785118	     -1.06151421	     -0.64565387	      0.99966985	      0.27678392	     22.17539037	      0.14084396	      4.25557254	     -9.61488944	      1.07448560	     -5.49562166	     10.18519073	     -5.66348089	      6.36490172	      2.18783623	    -23.29378158	      3.94016699	     -4.74535948	     19.87874389	     -8.69759421	      5.33068729	     -6.01897556
      0.51650000	     -4.95081717	      2.40731693	     -1.12488566	     -0.64002041	      0.99907008	      0.27721700	     22.27752936	      0.34384470	      4.38028508	    -10.51426286	      1.08846228	     -5.64197620	     10.19132854	     -5.42159051	      6.15606047	      1.70887180	    -24.36594412	      3.59318972	     -4.17003999	     20.06559683	     -8.66761789	      5.45234271	     -5.95318526
      0.52066667	     -4.86993425	      2.22943226	     -1.20177960	     -0.63432990	      0.99861077	      0.27770889	     22.23902519	      0.63311284	      4.55005069	    -11.30624363	      1.01145648	     -5.97197784	     10.17984097	     -5.23710245	      5.83648586	      1.12597488	    -25.48932407	      3.24056109	     -3.46593288	     21.81158533	     -8.73053915	      5.69547671	     -5.89897765
      0.52483333	     -4.92304607	      2.17699434	     -1.22839171	     -0.62874383	      0.99793862	      0.27805172	     22.45796594	      0.76494997	      4.55255019	    -12.34646724	      1.24476133	     -5.99042317	     10.18243161	     -4.87182368	      5.67233716	      0.74128502	    -26.65308830	      2.73935511	     -2.96979758	     22.10830028	     -8.62626144	      5.76361648	     -5.82110981
      0.52900000	     -4.89099245	      2.04702247	     -1.28006844	     -0.62311799	      0.99740367	      0.27852041	     22.51175828	      0.99645226	      4.67899615	    -13.24215105	      1.40871113	     -6.25830392	      9.99502504	     -4.56590872	      5.38721934	      0.21197386	    -27.86626188	      2.15494325	     -2.43702041	     26.57501032	     -8.62848914	      5.91195539	     -5.76703027
      0.53316667	     -4.87055292	      1.96608592	     -1.33342565	     -0.61751728	      0.99684509	      0.27894030	     22.61779888	      1.16495793	      4.71890211	    -14.22044029	      1.71522435	     -6.27559223	      9.99743582	     -4.22499825	      5.15989348	     -0.26080376	    -29.11368551	      1.56092314	     -1.86757066	     26.65248062	     -8.61850846	      6.00181093	     -5.73878883
      0.53733333	     -4.84156725	      1.86512762	     -1.36625358	     -0.61192928	      0.99632430	      0.27934808	     22.69769604	      1.34821133	      4.75128122	    -15.17505833	      2.04200035	     -6.37165078	      9.98962326	     -3.85750417	      4.89454358	     -0.72728189	    -30.41642803	      0.93032771	     -1.28117593	     26.79435807	     -8.61774677	      6.12406407	     -5.70126989
      0.54150000	     -4.80948717	      1.74489905	     -1.38770743	     -0.60635651	      0.99581035	      0.27975108	     22.75984158	      1.54668049	      4.77318689	    -16.10563619	      2.40798192	     -6.47194480	      9.97218646	     -3.46337500	      4.59454414	     -1.18089450	    -31.77110248	      0.27327409	     -0.68002849	     26.99408433	     -8.62727482	      6.26735143	     -5.66896863
      0.54566667	     -4.72720444	      1.60588335	     -1.39708323	     -0.60079770	      0.99539710	      0.28015924	     22.74040584	      1.76072341	      4.79731141	    -16.98330971	      2.79018256	     -6.62932950	      9.31567534	     -3.09959746	      4.25526354	     -1.63264494	    -33.14151293	     -0.51327019	     -0.09285634	     31.09650361	     -8.69734319	      6.44991033	     -5.68810154
      0.54983333	     -4.71662128	      1.50612797	     -1.40236537	     -0.59527362	      0.99488110	      0.28052698	     22.82035739	      1.92789476	      4.78933731	    -17.90888833	      3.26678701	     -6.66596276	      9.31205795	     -2.63162932	      3.96324896	     -2.03017773	    -34.54922876	     -1.31083110	      0.41415512	     31.14237472	     -8.68034134	      6.55899577	     -5.62717295
      0.55400000	     -4.67692516	      1.38700657	     -1.39479694	     -0.58977633	      0.99441910	      0.28089641	     22.84325536	      2.10993170	      4.77806734	    -18.78192045	      3.76015334	     -6.72031841	      9.29794200	     -2.16810828	      3.63403820	     -2.41683056	    -35.99212810	     -2.14853000	      0.95716808	     31.21377170	     -8.70039654	      6.68713542	     -5.61235260
      0.55816667	     -4.64740784	      1.26555298	     -1.37123263	     -0.58431603	      0.99395260	      0.28123661	     22.86698899	      2.28625297	      4.74229002	    -19.63389902	      4.26801176	     -6.76979510	      9.27007536	     -1.67046568	      3.29579544	     -2.76328517	    -37.46346023	     -2.99270534	      1.50185664	     31.30733443	     -8.71328814	      6.83117773	     -5.60150329
      0.56233333	     -4.56811544	      1.13719938	     -1.33369139	     -0.57885923	      0.99363228	      0.28154395	     22.79078104	      2.46248272	      4.72400659	    -20.39146317	      4.79432640	     -6.85456767	      9.25139014	     -1.22018957	      2.95483987	     -3.04631044	    -38.91053057	     -3.96963382	      1.94593591	     31.36188763	     -8.79589136	      6.99500888	     -5.59024230
      0.56650000	     -4.53885629	      1.00491633	     -1.29244378	     -0.57347090	      0.99318962	      0.28186091	     22.79282370	      2.63727486	      4.64527290	    -21.19409945	      5.31806590	     -6.84239371	      9.19990605	     -0.67958334	      2.58570070	     -3.35309950	    -40.42436497	     -4.81298535	      2.51114473	     31.45814487	     -8.80491677	      7.12324861	     -5.59542299
      0.57066667	     -4.49511941	      0.87659480	     -1.23125511	     -0.56810941	      0.99281974	      0.28212804	     22.74486693	      2.79856401	      4.57136567	    -21.92536171	      5.86338614	     -6.85368530	      9.12447560	     -0.14743312	      2.23200391	     -3.57521647	    -41.91661547	     -5.74174065	      2.98784221	     31.54414925	     -8.84835836	      7.27827905	     -5.60114293
